<svg width="152" height="42" viewBox="0 0 152 42" fill="none" xmlns="http://www.w3.org/2000/svg">
<path d="M7.618 27.03L3.25 15.126H6.466L9.49 24.126L12.514 15.126H15.73L11.338 27.03H7.618Z" fill="#F64920"/>
<path d="M19.4736 13.278C18.9136 13.278 18.4496 13.11 18.0816 12.774C17.7296 12.438 17.5536 12.014 17.5536 11.502C17.5536 10.99 17.7296 10.574 18.0816 10.254C18.4496 9.918 18.9136 9.75 19.4736 9.75C20.0336 9.75 20.4896 9.918 20.8416 10.254C21.2096 10.574 21.3936 10.99 21.3936 11.502C21.3936 12.014 21.2096 12.438 20.8416 12.774C20.4896 13.11 20.0336 13.278 19.4736 13.278ZM17.9376 27.03V15.126H21.0096V27.03H17.9376Z" fill="#F64920"/>
<path d="M29.8381 27.318C28.7181 27.318 27.7181 27.046 26.8381 26.502C25.9581 25.958 25.2621 25.214 24.7501 24.27C24.2381 23.326 23.9821 22.254 23.9821 21.054C23.9821 19.854 24.2381 18.79 24.7501 17.862C25.2621 16.918 25.9581 16.182 26.8381 15.654C27.7181 15.11 28.7181 14.838 29.8381 14.838C30.7341 14.838 31.5181 15.006 32.1901 15.342C32.8621 15.678 33.4061 16.15 33.8221 16.758V9.75H36.8941V27.03H34.1581L33.8221 25.326C33.4381 25.854 32.9261 26.318 32.2861 26.718C31.6621 27.118 30.8461 27.318 29.8381 27.318ZM30.4861 24.63C31.4781 24.63 32.2861 24.302 32.9101 23.646C33.5501 22.974 33.8701 22.118 33.8701 21.078C33.8701 20.038 33.5501 19.19 32.9101 18.534C32.2861 17.862 31.4781 17.526 30.4861 17.526C29.5101 17.526 28.7021 17.854 28.0621 18.51C27.4221 19.166 27.1021 20.014 27.1021 21.054C27.1021 22.094 27.4221 22.95 28.0621 23.622C28.7021 24.294 29.5101 24.63 30.4861 24.63Z" fill="#F64920"/>
<path d="M45.9563 27.318C44.7563 27.318 43.6923 27.062 42.7643 26.55C41.8363 26.038 41.1083 25.318 40.5803 24.39C40.0523 23.462 39.7883 22.39 39.7883 21.174C39.7883 19.942 40.0443 18.846 40.5563 17.886C41.0843 16.926 41.8043 16.182 42.7163 15.654C43.6443 15.11 44.7323 14.838 45.9803 14.838C47.1483 14.838 48.1803 15.094 49.0763 15.606C49.9723 16.118 50.6683 16.822 51.1643 17.718C51.6763 18.598 51.9323 19.582 51.9323 20.67C51.9323 20.846 51.9243 21.03 51.9083 21.222C51.9083 21.414 51.9003 21.614 51.8843 21.822H42.8363C42.9003 22.75 43.2203 23.478 43.7963 24.006C44.3883 24.534 45.1003 24.798 45.9323 24.798C46.5563 24.798 47.0763 24.662 47.4923 24.39C47.9243 24.102 48.2443 23.734 48.4523 23.286H51.5723C51.3483 24.038 50.9723 24.726 50.4443 25.35C49.9323 25.958 49.2923 26.438 48.5243 26.79C47.7723 27.142 46.9163 27.318 45.9563 27.318ZM45.9803 17.334C45.2283 17.334 44.5643 17.55 43.9883 17.982C43.4123 18.398 43.0443 19.038 42.8843 19.902H48.8123C48.7643 19.118 48.4763 18.494 47.9483 18.03C47.4203 17.566 46.7643 17.334 45.9803 17.334Z" fill="#F64920"/>
<path d="M60.3781 27.318C59.2261 27.318 58.1861 27.054 57.2581 26.526C56.3461 25.998 55.6181 25.27 55.0741 24.342C54.5461 23.398 54.2821 22.31 54.2821 21.078C54.2821 19.846 54.5541 18.766 55.0981 17.838C55.6421 16.894 56.3701 16.158 57.2821 15.63C58.2101 15.102 59.2501 14.838 60.4021 14.838C61.5381 14.838 62.5621 15.102 63.4741 15.63C64.4021 16.158 65.1301 16.894 65.6581 17.838C66.2021 18.766 66.4741 19.846 66.4741 21.078C66.4741 22.31 66.2021 23.398 65.6581 24.342C65.1301 25.27 64.4021 25.998 63.4741 26.526C62.5461 27.054 61.5141 27.318 60.3781 27.318ZM60.3781 24.654C61.1781 24.654 61.8741 24.358 62.4661 23.766C63.0581 23.158 63.3541 22.262 63.3541 21.078C63.3541 19.894 63.0581 19.006 62.4661 18.414C61.8741 17.806 61.1861 17.502 60.4021 17.502C59.5861 17.502 58.8821 17.806 58.2901 18.414C57.7141 19.006 57.4261 19.894 57.4261 21.078C57.4261 22.262 57.7141 23.158 58.2901 23.766C58.8821 24.358 59.5781 24.654 60.3781 24.654Z" fill="#F64920"/>
<path d="M76.4267 27.318C75.5307 27.318 74.7467 27.15 74.0747 26.814C73.4027 26.478 72.8587 26.006 72.4427 25.398L72.1067 27.03H69.3708V9.75H72.4427V16.83C72.8267 16.302 73.3307 15.838 73.9548 15.438C74.5947 15.038 75.4187 14.838 76.4267 14.838C77.5467 14.838 78.5467 15.11 79.4267 15.654C80.3067 16.198 81.0027 16.942 81.5147 17.886C82.0267 18.83 82.2827 19.902 82.2827 21.102C82.2827 22.302 82.0267 23.374 81.5147 24.318C81.0027 25.246 80.3067 25.982 79.4267 26.526C78.5467 27.054 77.5467 27.318 76.4267 27.318ZM75.7787 24.63C76.7547 24.63 77.5627 24.302 78.2027 23.646C78.8428 22.99 79.1627 22.142 79.1627 21.102C79.1627 20.062 78.8428 19.206 78.2027 18.534C77.5627 17.862 76.7547 17.526 75.7787 17.526C74.7867 17.526 73.9707 17.862 73.3307 18.534C72.7067 19.19 72.3947 20.038 72.3947 21.078C72.3947 22.118 72.7067 22.974 73.3307 23.646C73.9707 24.302 74.7867 24.63 75.7787 24.63Z" fill="#F64920"/>
<path d="M90.961 27.318C89.761 27.318 88.697 27.062 87.769 26.55C86.841 26.038 86.113 25.318 85.585 24.39C85.057 23.462 84.793 22.39 84.793 21.174C84.793 19.942 85.049 18.846 85.561 17.886C86.089 16.926 86.809 16.182 87.721 15.654C88.649 15.11 89.737 14.838 90.985 14.838C92.153 14.838 93.185 15.094 94.081 15.606C94.977 16.118 95.673 16.822 96.169 17.718C96.681 18.598 96.937 19.582 96.937 20.67C96.937 20.846 96.929 21.03 96.913 21.222C96.913 21.414 96.905 21.614 96.889 21.822H87.841C87.905 22.75 88.225 23.478 88.801 24.006C89.393 24.534 90.105 24.798 90.937 24.798C91.561 24.798 92.081 24.662 92.497 24.39C92.929 24.102 93.249 23.734 93.457 23.286H96.577C96.353 24.038 95.977 24.726 95.449 25.35C94.937 25.958 94.297 26.438 93.529 26.79C92.777 27.142 91.921 27.318 90.961 27.318ZM90.985 17.334C90.233 17.334 89.569 17.55 88.993 17.982C88.417 18.398 88.049 19.038 87.889 19.902H93.817C93.769 19.118 93.481 18.494 92.953 18.03C92.425 17.566 91.769 17.334 90.985 17.334Z" fill="#F64920"/>
<path d="M99.6707 27.03V9.75H102.743V27.03H99.6707Z" fill="#F64920"/>
<path d="M110.136 27.318C109.112 27.318 108.272 27.158 107.616 26.838C106.96 26.502 106.472 26.062 106.152 25.518C105.832 24.974 105.672 24.374 105.672 23.718C105.672 22.614 106.104 21.718 106.968 21.03C107.832 20.342 109.128 19.998 110.856 19.998H113.88V19.71C113.88 18.894 113.648 18.294 113.184 17.91C112.72 17.526 112.144 17.334 111.456 17.334C110.832 17.334 110.288 17.486 109.824 17.79C109.36 18.078 109.072 18.51 108.96 19.086H105.96C106.04 18.222 106.328 17.47 106.824 16.83C107.336 16.19 107.992 15.702 108.792 15.366C109.592 15.014 110.488 14.838 111.48 14.838C113.176 14.838 114.512 15.262 115.488 16.11C116.464 16.958 116.952 18.158 116.952 19.71V27.03H114.336L114.048 25.11C113.696 25.75 113.2 26.278 112.56 26.694C111.936 27.11 111.128 27.318 110.136 27.318ZM110.832 24.918C111.712 24.918 112.392 24.63 112.872 24.054C113.368 23.478 113.68 22.766 113.808 21.918H111.192C110.376 21.918 109.792 22.07 109.44 22.374C109.088 22.662 108.912 23.022 108.912 23.454C108.912 23.918 109.088 24.278 109.44 24.534C109.792 24.79 110.256 24.918 110.832 24.918Z" fill="#F64920"/>
<path d="M121.737 13.278C121.177 13.278 120.713 13.11 120.345 12.774C119.993 12.438 119.817 12.014 119.817 11.502C119.817 10.99 119.993 10.574 120.345 10.254C120.713 9.918 121.177 9.75 121.737 9.75C122.297 9.75 122.753 9.918 123.105 10.254C123.473 10.574 123.657 10.99 123.657 11.502C123.657 12.014 123.473 12.438 123.105 12.774C122.753 13.11 122.297 13.278 121.737 13.278ZM117.777 32.31V29.694H118.713C119.241 29.694 119.617 29.59 119.841 29.382C120.065 29.174 120.177 28.822 120.177 28.326V15.126H123.249V28.326C123.249 29.766 122.881 30.79 122.145 31.398C121.425 32.006 120.441 32.31 119.193 32.31H117.777Z" fill="#F64920"/>
<path d="M130.709 27.318C129.685 27.318 128.845 27.158 128.189 26.838C127.533 26.502 127.045 26.062 126.725 25.518C126.405 24.974 126.245 24.374 126.245 23.718C126.245 22.614 126.677 21.718 127.541 21.03C128.405 20.342 129.701 19.998 131.429 19.998H134.453V19.71C134.453 18.894 134.221 18.294 133.757 17.91C133.293 17.526 132.717 17.334 132.029 17.334C131.405 17.334 130.861 17.486 130.397 17.79C129.933 18.078 129.645 18.51 129.533 19.086H126.533C126.613 18.222 126.901 17.47 127.397 16.83C127.909 16.19 128.565 15.702 129.365 15.366C130.165 15.014 131.061 14.838 132.053 14.838C133.749 14.838 135.085 15.262 136.061 16.11C137.037 16.958 137.525 18.158 137.525 19.71V27.03H134.909L134.621 25.11C134.269 25.75 133.773 26.278 133.133 26.694C132.509 27.11 131.701 27.318 130.709 27.318ZM131.405 24.918C132.285 24.918 132.965 24.63 133.445 24.054C133.941 23.478 134.253 22.766 134.381 21.918H131.765C130.949 21.918 130.365 22.07 130.013 22.374C129.661 22.662 129.485 23.022 129.485 23.454C129.485 23.918 129.661 24.278 130.013 24.534C130.365 24.79 130.829 24.918 131.405 24.918Z" fill="#F64920"/>
<path d="M140.607 27.03V15.126H143.343L143.631 17.358C144.063 16.59 144.647 15.982 145.383 15.534C146.135 15.07 147.015 14.838 148.023 14.838V18.078H147.159C146.487 18.078 145.887 18.182 145.359 18.39C144.831 18.598 144.415 18.958 144.111 19.47C143.823 19.982 143.679 20.694 143.679 21.606V27.03H140.607Z" fill="#F64920"/>
<path fill-rule="evenodd" clip-rule="evenodd" d="M18.0816 12.774C18.4496 13.11 18.9136 13.278 19.4736 13.278C20.0336 13.278 20.4896 13.11 20.8416 12.774C21.2096 12.438 21.3936 12.014 21.3936 11.502C21.3936 10.99 21.2096 10.574 20.8416 10.254C20.4896 9.918 20.0336 9.75 19.4736 9.75C18.9136 9.75 18.4496 9.918 18.0816 10.254C17.7296 10.574 17.5536 10.99 17.5536 11.502C17.5536 12.014 17.7296 12.438 18.0816 12.774ZM17.9376 15.126V27.03H21.0096V15.126H17.9376ZM3.25 15.126L7.618 27.03H11.338L15.73 15.126H12.514L9.49 24.126L6.466 15.126H3.25ZM29.8381 27.318C28.7181 27.318 27.7181 27.046 26.8381 26.502C25.9581 25.958 25.2621 25.214 24.7501 24.27C24.2381 23.326 23.9821 22.254 23.9821 21.054C23.9821 19.854 24.2381 18.79 24.7501 17.862C25.2621 16.918 25.9581 16.182 26.8381 15.654C27.7181 15.11 28.7181 14.838 29.8381 14.838C30.7341 14.838 31.5181 15.006 32.1901 15.342C32.8621 15.678 33.4061 16.15 33.8221 16.758V9.75H36.8941V27.03H34.1581L33.8221 25.326C33.4381 25.854 32.9261 26.318 32.2861 26.718C31.6621 27.118 30.8461 27.318 29.8381 27.318ZM30.4861 24.63C31.4781 24.63 32.2861 24.302 32.9101 23.646C33.5501 22.974 33.8701 22.118 33.8701 21.078C33.8701 20.038 33.5501 19.19 32.9101 18.534C32.2861 17.862 31.4781 17.526 30.4861 17.526C29.5101 17.526 28.7021 17.854 28.0621 18.51C27.4221 19.166 27.1021 20.014 27.1021 21.054C27.1021 22.094 27.4221 22.95 28.0621 23.622C28.7021 24.294 29.5101 24.63 30.4861 24.63ZM42.7643 26.55C43.6923 27.062 44.7563 27.318 45.9563 27.318C46.9163 27.318 47.7723 27.142 48.5243 26.79C49.2923 26.438 49.9323 25.958 50.4443 25.35C50.9723 24.726 51.3483 24.038 51.5723 23.286H48.4523C48.2443 23.734 47.9243 24.102 47.4923 24.39C47.0763 24.662 46.5563 24.798 45.9323 24.798C45.1003 24.798 44.3883 24.534 43.7963 24.006C43.2203 23.478 42.9003 22.75 42.8363 21.822H51.8843C51.9003 21.614 51.9083 21.414 51.9083 21.222C51.9243 21.03 51.9323 20.846 51.9323 20.67C51.9323 19.582 51.6763 18.598 51.1643 17.718C50.6683 16.822 49.9723 16.118 49.0763 15.606C48.1803 15.094 47.1483 14.838 45.9803 14.838C44.7323 14.838 43.6443 15.11 42.7163 15.654C41.8043 16.182 41.0843 16.926 40.5563 17.886C40.0443 18.846 39.7883 19.942 39.7883 21.174C39.7883 22.39 40.0523 23.462 40.5803 24.39C41.1083 25.318 41.8363 26.038 42.7643 26.55ZM43.9883 17.982C44.5643 17.55 45.2283 17.334 45.9803 17.334C46.7643 17.334 47.4203 17.566 47.9483 18.03C48.4763 18.494 48.7643 19.118 48.8123 19.902H42.8843C43.0443 19.038 43.4123 18.398 43.9883 17.982ZM60.3781 27.318C59.2261 27.318 58.1861 27.054 57.2581 26.526C56.3461 25.998 55.6181 25.27 55.0741 24.342C54.5461 23.398 54.2821 22.31 54.2821 21.078C54.2821 19.846 54.5541 18.766 55.0981 17.838C55.6421 16.894 56.3701 16.158 57.2821 15.63C58.2101 15.102 59.2501 14.838 60.4021 14.838C61.5381 14.838 62.5621 15.102 63.4741 15.63C64.4021 16.158 65.1301 16.894 65.6581 17.838C66.2021 18.766 66.4741 19.846 66.4741 21.078C66.4741 22.31 66.2021 23.398 65.6581 24.342C65.1301 25.27 64.4021 25.998 63.4741 26.526C62.5461 27.054 61.5141 27.318 60.3781 27.318ZM60.3781 24.654C61.1781 24.654 61.8741 24.358 62.4661 23.766C63.0581 23.158 63.3541 22.262 63.3541 21.078C63.3541 19.894 63.0581 19.006 62.4661 18.414C61.8741 17.806 61.1861 17.502 60.4021 17.502C59.5861 17.502 58.8821 17.806 58.2901 18.414C57.7141 19.006 57.4261 19.894 57.4261 21.078C57.4261 22.262 57.7141 23.158 58.2901 23.766C58.8821 24.358 59.5781 24.654 60.3781 24.654ZM82.2827 21.0802C79.8386 22.8379 77.6506 24.9292 75.785 27.2874C75.1513 27.225 74.5812 27.0672 74.0747 26.814C73.4027 26.478 72.8587 26.006 72.4427 25.398L72.1067 27.03H69.3708V9.75H72.4427V16.83C72.8267 16.302 73.3307 15.838 73.9548 15.438C74.5947 15.038 75.4187 14.838 76.4267 14.838C77.5467 14.838 78.5467 15.11 79.4267 15.654C80.3067 16.198 81.0027 16.942 81.5147 17.886C82.0236 18.8243 82.2796 19.889 82.2827 21.0802ZM94.3106 15.7442C90.993 16.4542 87.8646 17.6744 85.0115 19.3188C85.1389 18.8116 85.3221 18.334 85.561 17.886C86.089 16.926 86.809 16.182 87.721 15.654C88.649 15.11 89.737 14.838 90.985 14.838C92.153 14.838 93.185 15.094 94.081 15.606C94.159 15.6506 94.2356 15.6967 94.3106 15.7442ZM102.743 15.0715C102.196 15.0439 101.646 15.03 101.092 15.03C100.616 15.03 100.142 15.0403 99.6707 15.0607V9.75H102.743V15.0715ZM116.932 19.1814C114.182 17.6281 111.182 16.4667 108.007 15.7731C108.251 15.6189 108.513 15.4832 108.792 15.366C109.592 15.014 110.488 14.838 111.48 14.838C113.176 14.838 114.512 15.262 115.488 16.11C116.35 16.8591 116.831 17.8829 116.932 19.1814ZM123.249 23.8465C122.28 22.9299 121.254 22.0727 120.177 21.2808V15.126H123.249V23.8465ZM78.2027 23.646C77.5627 24.302 76.7547 24.63 75.7787 24.63C74.7867 24.63 73.9707 24.302 73.3307 23.646C72.7067 22.974 72.3947 22.118 72.3947 21.078C72.3947 20.038 72.7067 19.19 73.3307 18.534C73.9707 17.862 74.7867 17.526 75.7787 17.526C76.7547 17.526 77.5627 17.862 78.2027 18.534C78.8428 19.206 79.1627 20.062 79.1627 21.102C79.1627 22.142 78.8428 22.99 78.2027 23.646ZM120.345 12.774C120.713 13.11 121.177 13.278 121.737 13.278C122.297 13.278 122.753 13.11 123.105 12.774C123.473 12.438 123.657 12.014 123.657 11.502C123.657 10.99 123.473 10.574 123.105 10.254C122.753 9.918 122.297 9.75 121.737 9.75C121.177 9.75 120.713 9.918 120.345 10.254C119.993 10.574 119.817 10.99 119.817 11.502C119.817 12.014 119.993 12.438 120.345 12.774ZM130.709 27.318C129.685 27.318 128.845 27.158 128.189 26.838C127.533 26.502 127.045 26.062 126.725 25.518C126.405 24.974 126.245 24.374 126.245 23.718C126.245 22.614 126.677 21.718 127.541 21.03C128.405 20.342 129.701 19.998 131.429 19.998H134.453V19.71C134.453 18.894 134.221 18.294 133.757 17.91C133.293 17.526 132.717 17.334 132.029 17.334C131.405 17.334 130.861 17.486 130.397 17.79C129.933 18.078 129.645 18.51 129.533 19.086H126.533C126.613 18.222 126.901 17.47 127.397 16.83C127.909 16.19 128.565 15.702 129.365 15.366C130.165 15.014 131.061 14.838 132.053 14.838C133.749 14.838 135.085 15.262 136.061 16.11C137.037 16.958 137.525 18.158 137.525 19.71V27.03H134.909L134.621 25.11C134.269 25.75 133.773 26.278 133.133 26.694C132.509 27.11 131.701 27.318 130.709 27.318ZM131.405 24.918C132.285 24.918 132.965 24.63 133.445 24.054C133.941 23.478 134.253 22.766 134.381 21.918H131.765C130.949 21.918 130.365 22.07 130.013 22.374C129.661 22.662 129.485 23.022 129.485 23.454C129.485 23.918 129.661 24.278 130.013 24.534C130.365 24.79 130.829 24.918 131.405 24.918ZM140.607 15.126V27.03H143.679V21.606C143.679 20.694 143.823 19.982 144.111 19.47C144.415 18.958 144.831 18.598 145.359 18.39C145.887 18.182 146.487 18.078 147.159 18.078H148.023V14.838C147.015 14.838 146.135 15.07 145.383 15.534C144.647 15.982 144.063 16.59 143.631 17.358L143.343 15.126H140.607Z" fill="#FFBD3A"/>
</svg>
